{
  "title": "Maze Runner: The Scorch Trials (2015) CAMRip *Proper* [RUS]",
  "uid": 12480153,
  "size": 1467578368,
  "categoryP": "video",
  "categoryS": "movies",
  "magnet": "?xt=urn:btih:fb633edf0a57798a292572712e200b8c31727207&amp;dn=Maze+Runner%3A+The+Scorch+Trials+%282015%29+CAMRip+%2AProper%2A+%5BRUS%5D&amp;tr=udp%3A%2F%2Ftracker.openbittorrent.com%3A80&amp;tr=udp%3A%2F%2Fopen.demonii.com%3A1337&amp;tr=udp%3A%2F%2Ftracker.coppersurfer.tk%3A6969&amp;tr=udp%3A%2F%2Fexodus.desync.com%3A6969",
  "seeders": 507,
  "leechers": 100,
  "uploader": "nbdjod",
  "files": 1,
  "time": 1443039040,
  "description": "Maze Runner: The Scorch Trials (2015) CAMRip *Proper* [RUS]\n\nMI:\nGeneral\nFormat                                   : AVI\nFormat/Info                              : Audio Video Interleave\nFile size                                : 1.37 GiB\nDuration                                 : 2h 3mn\nOverall bit rate                         : 1 580 Kbps\nWriting application                      : VirtualDubMod 1.5.10.2 (build 2540/release)\nWriting library                          : VirtualDubMod build 2540/release\n\nVideo\nID                                       : 0\nFormat                                   : MPEG-4 Visual\nFormat profile                           : Advanced Simple@L5\nFormat settings, BVOP                    : 2\nFormat settings, QPel                    : No\nFormat settings, GMC                     : No warppoints\nFormat settings, Matrix                  : Default (MPEG)\nCodec ID                                 : XVID\nCodec ID/Hint                            : XviD\nDuration                                 : 2h 3mn\nBit rate                                 : 1 440 Kbps\nWidth                                    : 720 pixels\nHeight                                   : 400 pixels\nDisplay aspect ratio                     : 16:9\nFrame rate                               : 29.970 fps\nColor space                              : YUV\nChroma subsampling                       : 4:2:0\nBit depth                                : 8 bits\nScan type                                : Progressive\nCompression mode                         : Lossy\nBits/(Pixel*Frame)                       : 0.167\nStream size                              : 1.25 GiB (91%)\nWriting library                          : XviD 1.2.1 (UTC 2008-12-04)\n\nAudio\nID                                       : 1\nFormat                                   : AC-3\nFormat/Info                              : Audio Coding 3\nMode extension                           : CM (complete main)\nFormat settings, Endianness              : Big\nCodec ID                                 : 2000\nDuration                                 : 2h 3mn\nBit rate mode                            : Constant\nBit rate                                 : 128 Kbps\nChannel(s)                               : 2 channels\nChannel positions                        : Front: L R\nSampling rate                            : 48.0 KHz\nCompression mode                         : Lossy\nStream size                              : 113 MiB (8%)\nAlignment                                : Split accross interleaves\nInterleave, duration                     : 33 ms (1.00 video frame)\nInterleave, preload duration             : 500 ms\n\nScreens: &lt;a href=&quot;\nhttp://i4.imageban.ru/out/2015/09/23/bc61bdb64ec2535fb9124a0159df5781.jpg&quot; rel=&quot;nofollow&quot; target=&quot;_NEW&quot;&gt;\nhttp://i4.imageban.ru/out/2015/09/23/bc61bdb64ec2535fb9124a0159df5781.jpg&lt;/a&gt; &lt;a href=&quot;\nhttp://i1.imageban.ru/out/2015/09/23/3780504c0b0f668925040ba8fe4c9451.jpg&quot; rel=&quot;nofollow&quot; target=&quot;_NEW&quot;&gt;\nhttp://i1.imageban.ru/out/2015/09/23/3780504c0b0f668925040ba8fe4c9451.jpg&lt;/a&gt; &lt;a href=&quot;\nhttp://i1.imageban.ru/out/2015/09/23/52a6ce16e14190b155679e55ce2f8acc.jpg&quot; rel=&quot;nofollow&quot; target=&quot;_NEW&quot;&gt;\nhttp://i1.imageban.ru/out/2015/09/23/52a6ce16e14190b155679e55ce2f8acc.jpg&lt;/a&gt; &lt;a href=&quot;\nhttp://i6.imageban.ru/out/2015/09/23/15c7e352c4b93e8c649e06bf061bbb76.jpg&quot; rel=&quot;nofollow&quot; target=&quot;_NEW&quot;&gt;\nhttp://i6.imageban.ru/out/2015/09/23/15c7e352c4b93e8c649e06bf061bbb76.jpg&lt;/a&gt;\n\nsample: &lt;a href=&quot;\nhttp://sendfile.su/1157322&quot; rel=&quot;nofollow&quot; target=&quot;_NEW&quot;&gt;\nhttp://sendfile.su/1157322&lt;/a&gt;",
  "parsed": {
    "xt": "urn:btih:fb633edf0a57798a292572712e200b8c31727207",
    "dn": "Maze Runner: The Scorch Trials (2015) CAMRip *Proper* [RUS]",
    "tr": [
      "udp://exodus.desync.com:6969",
      "udp://open.demonii.com:1337",
      "udp://tracker.coppersurfer.tk:6969",
      "udp://tracker.openbittorrent.com:80"
    ],
    "infoHash": "fb633edf0a57798a292572712e200b8c31727207",
    "infoHashBuffer": {
      "type": "Buffer",
      "data": [
        251,
        99,
        62,
        223,
        10,
        87,
        121,
        138,
        41,
        37,
        114,
        113,
        46,
        32,
        11,
        140,
        49,
        114,
        114,
        7
      ]
    },
    "name": "Maze Runner: The Scorch Trials (2015) CAMRip *Proper* [RUS]",
    "announce": [
      "udp://exodus.desync.com:6969",
      "udp://open.demonii.com:1337",
      "udp://tracker.coppersurfer.tk:6969",
      "udp://tracker.openbittorrent.com:80"
    ],
    "urlList": []
  },
  "previous": 607,
  "peers": 26,
  "last_updated": "2016-12-25T18:46:44.205Z"
}